<?xml version="1.0" encoding="utf-8"?>
<!-- Generator: Adobe Illustrator 21.1.0, SVG Export Plug-In . SVG Version: 6.00 Build 0)  -->
<svg version="1.1" id="Layer_1" xmlns="http://www.w3.org/2000/svg" xmlns:xlink="http://www.w3.org/1999/xlink" x="0px" y="0px"
	 viewBox="0 0 172 63" style="enable-background:new 0 0 172 63;" xml:space="preserve">
<style type="text/css">
	.st0{opacity:0.7;fill:#242940;enable-background:new    ;}
	.st1{fill:url(#Oval_1_);}
	.st2{fill:#FFFFFF;}
	.st3{filter:url(#Adobe_OpacityMaskFilter);}
	.st4{mask:url(#mask-3);fill:#FFFFFF;}
</style>
<title>logo-text</title>
<desc>Created with Sketch.</desc>
<path id="zyppys" class="st0" d="M87.3,40.3H73v-3.6l8.9-10.1h-8.7V23h13.9v3.5l-9,10.2h9.1V40.3z M93.7,47h-4.3l4-9L86.3,23h4.5
	l4.8,10.8l4.5-10.8h4.2L93.7,47z M110.3,47h-4V22.4h3.9v2.4c0.8-1.5,2.8-2.8,5.4-2.8c5,0,7.8,4,7.8,9.2c0,5.3-3.1,9.3-8,9.3
	c-2.4,0-4.3-1.1-5.2-2.4V47z M119.6,31.1c0-3.2-1.9-5.3-4.8-5.3c-2.8,0-4.8,2.1-4.8,5.3c0,3.2,2,5.3,4.8,5.3
	C117.7,36.4,119.6,34.3,119.6,31.1z M129.4,47h-4V22.4h3.9v2.4c0.8-1.5,2.8-2.8,5.4-2.8c5,0,7.8,4,7.8,9.2c0,5.3-3.1,9.3-8,9.3
	c-2.4,0-4.3-1.1-5.2-2.4V47z M138.7,31.1c0-3.2-1.9-5.3-4.8-5.3c-2.8,0-4.8,2.1-4.8,5.3c0,3.2,2,5.3,4.8,5.3
	C136.7,36.4,138.7,34.3,138.7,31.1z M148,47h-4.3l4-9L140.6,23h4.5l4.8,10.8l4.5-10.8h4.2L148,47z M158.7,35.1l3.5-1
	c0.1,1.6,1.3,2.9,3.4,2.9c1.7,0,2.5-0.9,2.5-2c0-0.9-0.6-1.6-2-1.9l-2.5-0.6c-3-0.7-4.5-2.7-4.5-5c0-3,2.7-5.5,6.2-5.5
	c4.7,0,6.2,3.1,6.5,4.8l-3.4,1c-0.1-1-0.9-2.6-3.1-2.6c-1.4,0-2.4,0.9-2.4,2c0,0.9,0.7,1.6,1.7,1.8l2.6,0.5c3.2,0.7,4.8,2.7,4.8,5.2
	c0,2.6-2.1,5.5-6.4,5.5C160.8,40.3,158.9,37,158.7,35.1z"/>
<radialGradient id="Oval_1_" cx="-36.893" cy="155.5144" r="1" gradientTransform="matrix(62.6013 0 0 -62.6013 2340.8481 9735.3984)" gradientUnits="userSpaceOnUse">
	<stop  offset="0" style="stop-color:#AA0BCA"/>
	<stop  offset="1" style="stop-color:#7D0EDE"/>
</radialGradient>
<circle id="Oval" class="st1" cx="31.3" cy="31.3" r="31.3"/>
<g id="Group" transform="translate(21.000000, 14.318182)">
	<g id="Clip-5">
		<path id="path-2_1_" class="st2" d="M1.7,0.4C0.7,0.6,0,1.6,0,2.6c0,1,0.7,1.9,1.7,2.1c3.6,0,6.8,0,10.4,0c-2,2.3-3.9,4.4-6,6.7
			l-2.3,2.3c1.3,0,2.6,0.2,3.6,0.7c-3.3,2.2-5.7,6.1-5.8,11.1c0.1,8.9,6.9,8.8,6.9,8.8c3.6,0,8.9-3.2,8.9-11.1
			c-0.1-2.7-0.6-4.9-1.4-6.7c3.8,0.8,5.6,4.1,5.6,4.1s1.3,0.5,2.3-0.2c0.9-0.6,1.1-1.8,0.4-2.8c0,0-3.1-5.1-9.9-5.4
			c-0.4,0-0.8,0-1.1,0c-0.9-1-1.7-1.5-1.7-1.5l5.8-6.1c0.8-0.6,1.1-1.6,0.9-2.6c-0.2-0.9-1-1.6-1.8-1.8 M8.5,30.1
			c-1.1-0.1-3.1-1.3-2.8-5.2c0.3-3.8,2.6-6.5,5.4-7.7c1.5,2,2.2,4.7,1.9,7.5C11.9,29.6,9.5,30.1,8.5,30.1
			C8.6,30.1,8.6,30.1,8.5,30.1"/>
	</g>
	<defs>
		<filter id="Adobe_OpacityMaskFilter" filterUnits="userSpaceOnUse" x="1.3" y="12.2" width="26.1" height="28.7">
			<feColorMatrix  type="matrix" values="1 0 0 0 0  0 1 0 0 0  0 0 1 0 0  0 0 0 1 0"/>
		</filter>
	</defs>
	<mask maskUnits="userSpaceOnUse" x="1.3" y="12.2" width="26.1" height="28.7" id="mask-3">
		<g class="st3">
			<path id="path-2" class="st2" d="M1.7,0.4C0.7,0.6,0,1.6,0,2.6c0,1,0.7,1.9,1.7,2.1c3.6,0,6.8,0,10.4,0c-2,2.3-3.9,4.4-6,6.7
				l-2.3,2.3c1.3,0,2.6,0.2,3.6,0.7c-3.3,2.2-5.7,6.1-5.8,11.1c0.1,8.9,6.9,8.8,6.9,8.8c3.6,0,8.9-3.2,8.9-11.1
				c-0.1-2.7-0.6-4.9-1.4-6.7c3.8,0.8,5.6,4.1,5.6,4.1s1.3,0.5,2.3-0.2c0.9-0.6,1.1-1.8,0.4-2.8c0,0-3.1-5.1-9.9-5.4
				c-0.4,0-0.8,0-1.1,0c-0.9-1-1.7-1.5-1.7-1.5l5.8-6.1c0.8-0.6,1.1-1.6,0.9-2.6c-0.2-0.9-1-1.6-1.8-1.8 M8.5,30.1
				c-1.1-0.1-3.1-1.3-2.8-5.2c0.3-3.8,2.6-6.5,5.4-7.7c1.5,2,2.2,4.7,1.9,7.5C11.9,29.6,9.5,30.1,8.5,30.1
				C8.6,30.1,8.6,30.1,8.5,30.1"/>
		</g>
	</mask>
	<path id="Fill-4" class="st4" d="M14.4,35.3c-4.8,0-8.7-4.3-8.7-9.6c0-5.3,3.9-9.6,8.7-9.6c4.8,0,8.7,4.3,8.7,9.6
		C23.1,31,19.2,35.3,14.4,35.3 M14.4,12.2c-7.2,0-13,6.4-13,14.4c0,7.9,5.8,14.4,13,14.4c7.2,0,13-6.4,13-14.4
		C27.4,18.6,21.6,12.2,14.4,12.2"/>
</g>
</svg>
