<svg height="28" viewBox="0 0 56 56" xmlns="http://www.w3.org/2000/svg"><path d="M28 0C12.542 0 0 12.542 0 28s12.542 28 28 28c15.427 0 28-12.542 28-28S43.427 0 28 0zm18.495 12.907a23.807 23.807 0 0 1 5.405 14.88c-.79-.151-8.685-1.76-16.642-.759-.182-.395-.334-.82-.516-1.245a71.173 71.173 0 0 0-1.58-3.462c8.808-3.583 12.816-8.746 13.333-9.414zM28 4.13a23.862 23.862 0 0 1 15.852 6.013c-.425.608-4.039 5.436-12.542 8.625-3.917-7.198-8.26-13.089-8.928-14A24.321 24.321 0 0 1 28 4.13zM17.826 6.377c.638.85 4.89 6.773 8.868 13.818-11.176 2.976-21.045 2.916-22.108 2.916 1.548-7.41 6.56-13.575 13.24-16.734zM4.07 28.03v-.728c1.033.03 12.634.182 24.569-3.402a71.137 71.137 0 0 1 1.943 4.07c-.303.09-.637.182-.941.273-12.33 3.978-18.89 14.85-19.436 15.761A23.86 23.86 0 0 1 4.069 28.03zM28 51.93a23.75 23.75 0 0 1-14.668-5.04c.425-.881 5.284-10.235 18.768-14.942.06-.03.09-.03.152-.06 3.37 8.715 4.737 16.034 5.102 18.13A23.522 23.522 0 0 1 28 51.93zm13.332-4.1c-.243-1.457-1.519-8.442-4.647-17.036 7.502-1.184 14.061.76 14.881 1.032-1.032 6.651-4.859 12.39-10.234 16.005z" fill="hsla(234, 13%, 33%, 1)" fill-rule="evenodd"></path></svg>