<?xml version="1.0" encoding="UTF-8"?>
<svg width="135px" height="66px" viewBox="0 0 135 66" version="1.1" xmlns="http://www.w3.org/2000/svg" xmlns:xlink="http://www.w3.org/1999/xlink">
    <!-- Generator: Sketch 54.1 (76490) - https://sketchapp.com -->
    <title>logo/black</title>
    <desc>Created with Sketch.</desc>
    <g id="Final" stroke="none" stroke-width="1" fill="none" fill-rule="evenodd">
        <g id="Menu" transform="translate(-101.000000, -89.000000)" fill="#000000">
            <g id="logo/black" transform="translate(101.000000, 89.000000)">
                <g>
                    <path d="M62.1333434,50.6161765 C62.1225869,51.6061765 61.8497635,52.5369706 61.3794119,53.3532353 C60.4113287,55.0517647 58.5641476,56.1970588 56.4509881,56.1970588 C53.3423652,56.1970588 50.8097029,53.6929412 50.7803671,50.6161765 L50.7803671,50.5579412 C50.7803671,49.5291176 51.063947,48.5585294 51.5616787,47.7238235 C52.5395406,46.0447059 54.3593415,44.9285294 56.4509881,44.9285294 C57.5471712,44.9285294 58.5641476,45.2294118 59.4236882,45.7632353 C61.0479167,46.7532353 62.1333434,48.5197059 62.1333434,50.5579412 L62.1333434,50.6161765 Z M20.544878,47.2579412 L20.5243429,50.5579412 L20.5243429,50.6161765 C20.4959849,53.6929412 17.9731012,56.1970588 14.852744,56.1970588 C12.7513188,56.1970588 10.902182,55.0517647 9.92432015,53.3532353 C9.46570293,52.5369706 9.19092375,51.6061765 9.18212299,50.6161765 L9.18212299,50.5579412 C9.18212299,48.5585294 10.2382138,46.7920588 11.8321287,45.7923529 C11.9299149,45.7341176 12.0462804,45.6661765 12.1548231,45.6079412 L20.5937711,40.7841176 L20.544878,47.2579412 Z M64.9006925,38.4255882 L52.3645033,14.7141176 L49.1864522,8.70617647 L49.1766736,8.67705882 C47.6316518,5.25088235 44.7958524,2.52352941 41.294129,1.08705882 C39.906543,0.514411765 38.4094365,0.145588235 36.8458354,0.0291176471 C36.4439342,0.0194117647 36.0537673,0 35.6528439,0 C35.2030274,0 34.753211,0.0194117647 34.3033945,0.0291176471 C26.7142085,0.689117647 20.7590297,7.00764706 20.7590297,14.7141176 L20.6622214,30.2047059 L7.85125298,37.5423529 L7.59700889,37.6976471 C3.06070766,40.2114706 0,45.0352941 0,50.5579412 L0,50.6161765 C0.00977861873,53.13 0.655167455,55.5079412 1.78948723,57.5752941 C1.84815894,57.6820588 1.91660927,57.7985294 1.97430312,57.9052941 C2.0339527,57.9926471 2.09262441,58.1091176 2.15129612,58.2061765 C4.75143084,62.4573529 9.46570293,65.3011765 14.852744,65.3011765 C23.0384257,65.3011765 29.6781079,58.7205882 29.7074437,50.6161765 L29.7074437,50.5579412 L29.7651376,41.9779412 L29.804252,35.4944118 L35.6528439,32.1458824 L41.294129,28.9235294 C42.7433203,28.0665 44.1905559,27.2104412 45.6397472,26.3534118 C44.1905559,23.6998235 42.7433203,21.0462353 41.294129,18.3926471 L41.294129,18.3829412 L35.6528439,21.6247059 L29.8736802,24.9247059 L29.9421306,14.7141176 C29.9421306,11.6082353 32.4845714,9.08470588 35.6137294,9.08470588 L35.6528439,9.08470588 C37.7259111,9.09441176 39.5349555,10.2105882 40.5030388,11.8605882 L40.6790539,12.1711765 L41.294129,13.2776471 L42.0969536,14.7141176 L43.4552038,17.1502941 L47.2307285,23.8958824 L47.9152318,25.1382353 L53.987754,36.0282353 C49.5482611,36.7561765 45.7737143,39.4340294 43.6028609,43.1620588 C42.3316405,45.3361765 41.5982441,47.85 41.5982441,50.5579412 L41.5982441,50.6161765 C41.6266021,58.7205882 48.2662842,65.3011765 56.4509881,65.3011765 C61.7813132,65.3011765 66.4554929,62.5155882 69.0849635,58.3323529 C69.1152772,58.2838235 69.1348344,58.2352941 69.1631924,58.2061765 C69.222842,58.1091176 69.2815137,57.9926471 69.3294289,57.9052941 C69.3401854,57.8752059 69.349964,57.8664706 69.3597427,57.8567647 C69.3792999,57.8470588 69.3792999,57.8179412 69.3890785,57.8082353 C69.456551,57.7111765 69.5162006,57.5947059 69.5846509,57.4782353 C70.6788783,55.4302941 71.3056878,53.1008824 71.3154664,50.6161765 L71.3154664,50.5579412 L64.9006925,38.4255882 Z" id="Fill-1"></path>
                    <path d="M106.200506,61.2269974 L96.8951237,61.2292112 L97.1523156,46.6164671 L85.7509939,46.3590111 L85.3689491,61.2252218 L76.4092101,61.2349826 L77.1247527,20.4242569 L77.1317482,19.946348 L86.4308366,20.2655419 L86.0570033,34.923518 L97.3600249,34.9229096 L97.6123275,20.318571 L106.919276,20.5077807 L106.200506,61.2269974 Z M133.979179,60.7747587 L112.030547,60.7716577 L112.349397,20.0586192 L111.94759,20.0525094 L122.054699,20.0502272 L121.760052,49.7714807 L134.272344,49.7689935 L133.979179,60.7747587 Z" id="Combined-Shape"></path>
                </g>
            </g>
        </g>
    </g>
</svg>