<svg height="28" viewBox="0 0 56 56" xmlns="http://www.w3.org/2000/svg"><path d="M15.484.503h25.032c8.274 0 14.98 6.707 14.98 14.98v25.033c0 8.274-6.706 14.98-14.98 14.98H15.484c-8.274 0-14.98-6.706-14.98-14.98V15.484C.503 7.21 7.21.504 15.483.504zm0 4.994c-5.516 0-9.987 4.471-9.987 9.987v25.032c0 5.516 4.471 9.987 9.987 9.987h25.032c5.516 0 9.987-4.471 9.987-9.987V15.484c0-5.516-4.471-9.987-9.987-9.987H15.484zM40.47 26.059a12.497 12.497 0 1 1-24.723 3.666 12.497 12.497 0 0 1 24.723-3.666zm-11.261-5.59a7.503 7.503 0 1 0-2.201 14.845 7.503 7.503 0 0 0 2.2-14.844zm10.776-4.454a2.497 2.497 0 1 1 3.53-3.53 2.497 2.497 0 0 1-3.53 3.53z" fill="hsla(234, 13%, 33%, 1)" fill-rule="nonzero"></path></svg>