<svg height="28" viewBox="0 0 59 56" xmlns="http://www.w3.org/2000/svg"><path d="M40.1 18.79c8.781 0 15.9 7.069 15.9 15.789V53H45.4V34.579c0-2.907-2.373-5.263-5.3-5.263-2.927 0-5.3 2.356-5.3 5.263V53H24.2V34.579c0-8.72 7.119-15.79 15.9-15.79zM3 21.42h10.6V53H3V21.421zm5.3-7.895c-2.927 0-5.3-2.356-5.3-5.263S5.373 3 8.3 3c2.927 0 5.3 2.356 5.3 5.263s-2.373 5.263-5.3 5.263z" stroke="hsla(234, 13%, 33%, 1)" stroke-width="5.264" fill="none" fill-rule="evenodd" stroke-linecap="round" stroke-linejoin="round"></path></svg>