
<svg width="26" height="26" viewBox="0 0 26 26" xmlns="http://www.w3.org/2000/svg">
  <g stroke="#FFFFFF" stroke-width="3.2" fill="none" fill-rule="evenodd">
    <path d="M10.256 1.6c-3.01 0-4.19.228-5.409.88A5.67 5.67 0 0 0 2.48 4.846C1.828 6.065 1.6 7.246 1.6 10.256v5.488c0 3.01.228 4.19.88 5.409a5.67 5.67 0 0 0 2.367 2.368c1.218.651 2.399.879 5.409.879h5.488c3.01 0 4.19-.228 5.409-.88a5.67 5.67 0 0 0 2.368-2.367c.651-1.218.879-2.399.879-5.409v-5.488c0-3.01-.228-4.19-.88-5.409a5.67 5.67 0 0 0-2.367-2.368c-1.218-.651-2.399-.879-5.409-.879h-5.488z"></path>
    <path d="M6.5 9.75h7.313"></path>
    <path d="M6.5 15.438h13.813"></path>
  </g>
</svg>
