<svg height="28" viewBox="0 0 62 51" xmlns="http://www.w3.org/2000/svg"><path d="M59 2.526a27.834 27.834 0 0 1-7.993 3.866c-3.14-3.584-8.2-4.84-12.67-3.147C33.865 4.938 30.935 9.222 31 13.97v2.526c-9.086.234-17.686-4.063-22.91-11.444 0 0-10.18 22.736 12.728 32.842A29.793 29.793 0 0 1 3 42.947c22.91 12.632 50.91 0 50.91-29.052a11.286 11.286 0 0 0-.205-2.097A19.467 19.467 0 0 0 59 2.526z" stroke="hsla(234, 13%, 33%, 1)" stroke-width="5.04" fill="none" fill-rule="evenodd" stroke-linecap="round" stroke-linejoin="round"></path></svg>